<?xml version="1.0" encoding="UTF-8"?>
<svg xmlns="http://www.w3.org/2000/svg" xmlns:xlink="http://www.w3.org/1999/xlink" width="375pt" height="374.999991pt" viewBox="0 0 375 374.999991" version="1.2">
<defs>
<clipPath id="clip1">
  <path d="M 0 0 L 374.835938 0 L 374.835938 375 L 0 375 Z M 0 0 "/>
</clipPath>
<clipPath id="clip2">
  <path d="M 38.15625 221 L 155 221 L 155 340 L 38.15625 340 Z M 38.15625 221 "/>
</clipPath>
</defs>
<g id="surface1">
<g clip-path="url(#clip1)" clip-rule="nonzero">
<path style=" stroke:none;fill-rule:nonzero;fill:rgb(29.798889%,38.819885%,66.268921%);fill-opacity:1;" d="M -0.164062 0 L 374.835938 0 L 374.835938 375 L -0.164062 375 Z M -0.164062 0 "/>
</g>
<path style=" stroke:none;fill-rule:nonzero;fill:rgb(97.648621%,97.648621%,92.939758%);fill-opacity:1;" d="M 142.976562 261.386719 L 113.75 233.4375 L 139.789062 206.226562 L 169.019531 234.179688 L 142.976562 261.386719 "/>
<path style=" stroke:none;fill-rule:nonzero;fill:rgb(29.798889%,38.819885%,66.268921%);fill-opacity:1;" d="M 142.976562 261.386719 L 144.148438 260.160156 L 116.148438 233.382812 L 139.84375 208.628906 L 166.617188 234.226562 L 141.75 260.210938 L 142.976562 261.386719 L 144.148438 260.160156 L 142.976562 261.386719 L 144.203125 262.558594 L 170.242188 235.351562 C 170.558594 235.023438 170.726562 234.59375 170.714844 234.140625 C 170.703125 233.683594 170.515625 233.265625 170.191406 232.949219 L 140.960938 205.003906 C 140.285156 204.355469 139.210938 204.378906 138.5625 205.058594 L 112.519531 232.265625 C 111.871094 232.941406 111.898438 234.015625 112.574219 234.664062 L 141.800781 262.613281 C 142.128906 262.925781 142.558594 263.09375 143.015625 263.085938 C 143.464844 263.078125 143.890625 262.886719 144.203125 262.558594 L 142.976562 261.386719 "/>
<path style=" stroke:none;fill-rule:nonzero;fill:rgb(97.648621%,97.648621%,92.939758%);fill-opacity:1;" d="M 168.046875 205.949219 C 136.816406 176.089844 135.722656 126.574219 165.589844 95.355469 C 195.472656 64.136719 245.007812 63.042969 276.230469 92.90625 C 307.457031 122.773438 308.558594 172.285156 278.6875 203.5 C 248.8125 234.714844 199.277344 235.816406 168.046875 205.949219 Z M 293.828125 74.515625 C 252.441406 34.941406 186.789062 36.398438 147.195312 77.765625 C 107.601562 119.140625 109.058594 184.761719 150.445312 224.335938 C 191.839844 263.914062 257.488281 262.46875 297.082031 221.089844 C 336.671875 179.722656 335.222656 114.097656 293.828125 74.515625 "/>
<path style=" stroke:none;fill-rule:nonzero;fill:rgb(29.798889%,38.819885%,66.268921%);fill-opacity:1;" d="M 168.046875 205.949219 L 169.222656 204.726562 C 153.496094 189.6875 145.585938 169.574219 145.582031 149.414062 C 145.585938 130.394531 152.625 111.359375 166.820312 96.53125 C 181.863281 80.8125 201.980469 72.90625 222.148438 72.902344 C 241.175781 72.90625 260.214844 79.941406 275.054688 94.132812 C 290.78125 109.167969 298.691406 129.28125 298.691406 149.441406 C 298.691406 168.460938 291.648438 187.496094 277.457031 202.324219 C 262.414062 218.042969 242.296875 225.949219 222.128906 225.949219 C 203.097656 225.949219 184.054688 218.910156 169.222656 204.726562 L 168.046875 205.949219 L 166.875 207.179688 C 182.359375 221.984375 202.265625 229.347656 222.128906 229.34375 C 243.179688 229.347656 264.210938 221.078125 279.910156 204.671875 C 294.722656 189.195312 302.089844 169.296875 302.089844 149.441406 C 302.089844 128.398438 293.816406 107.375 277.402344 91.679688 C 261.917969 76.867188 242.007812 69.507812 222.148438 69.507812 C 201.097656 69.507812 180.066406 77.777344 164.367188 94.183594 C 149.550781 109.664062 142.1875 129.5625 142.1875 149.414062 C 142.1875 170.457031 150.460938 191.484375 166.875 207.179688 Z M 293.828125 74.515625 L 295.003906 73.285156 C 274.582031 53.765625 248.339844 44.058594 222.15625 44.0625 C 194.394531 44.058594 166.671875 54.960938 145.96875 76.59375 C 126.4375 97 116.726562 123.230469 116.726562 149.410156 C 116.726562 177.152344 127.628906 204.867188 149.273438 225.566406 C 169.695312 245.089844 195.9375 254.792969 222.128906 254.789062 C 249.882812 254.792969 277.609375 243.894531 298.304688 222.261719 C 317.839844 201.851562 327.550781 175.621094 327.546875 149.441406 C 327.550781 121.699219 316.644531 93.980469 295.003906 73.285156 L 293.828125 74.515625 L 292.65625 75.738281 C 313.605469 95.773438 324.152344 122.578125 324.152344 149.441406 C 324.152344 174.789062 314.761719 200.15625 295.855469 219.917969 C 275.8125 240.859375 249 251.394531 222.128906 251.394531 C 196.769531 251.394531 171.394531 242.011719 151.621094 223.113281 C 130.671875 203.074219 120.125 176.269531 120.121094 149.410156 C 120.125 124.066406 129.511719 98.703125 148.421875 78.941406 C 168.464844 58 195.277344 47.457031 222.15625 47.457031 C 247.507812 47.457031 272.886719 56.839844 292.65625 75.738281 L 293.828125 74.515625 "/>
<path style=" stroke:none;fill-rule:nonzero;fill:rgb(97.648621%,97.648621%,92.939758%);fill-opacity:1;" d="M 86.90625 332.640625 C 80.027344 339.828125 68.617188 340.082031 61.433594 333.207031 L 45.585938 318.050781 C 38.394531 311.179688 38.144531 299.78125 45.023438 292.59375 L 105.871094 229.011719 C 112.75 221.820312 124.160156 221.566406 131.34375 228.441406 L 147.191406 243.59375 C 154.386719 250.46875 154.632812 261.871094 147.753906 269.0625 L 86.90625 332.640625 "/>
<g clip-path="url(#clip2)" clip-rule="nonzero">
<path style=" stroke:none;fill-rule:nonzero;fill:rgb(29.798889%,38.819885%,66.268921%);fill-opacity:1;" d="M 86.90625 332.640625 L 85.679688 331.46875 C 82.472656 334.820312 78.1875 336.5 73.878906 336.503906 C 69.820312 336.5 65.769531 335.007812 62.609375 331.984375 L 46.757812 316.828125 C 43.40625 313.617188 41.71875 309.339844 41.71875 305.039062 C 41.71875 300.980469 43.21875 296.929688 46.25 293.765625 L 107.097656 230.183594 C 110.3125 226.828125 114.59375 225.144531 118.898438 225.144531 C 122.957031 225.144531 127.007812 226.640625 130.171875 229.667969 L 146.015625 244.816406 C 149.371094 248.027344 151.050781 252.304688 151.058594 256.605469 C 151.050781 260.667969 149.554688 264.722656 146.523438 267.886719 L 85.679688 331.46875 L 86.90625 332.640625 L 88.132812 333.816406 L 148.980469 270.234375 C 152.632812 266.417969 154.453125 261.5 154.453125 256.605469 C 154.453125 251.425781 152.410156 246.234375 148.363281 242.367188 L 132.519531 227.214844 C 128.703125 223.566406 123.792969 221.746094 118.898438 221.75 C 113.710938 221.746094 108.515625 223.792969 104.640625 227.835938 L 43.792969 291.417969 C 40.140625 295.230469 38.320312 300.144531 38.324219 305.039062 C 38.320312 310.222656 40.367188 315.414062 44.410156 319.28125 L 60.261719 334.429688 C 64.074219 338.082031 68.988281 339.898438 73.878906 339.898438 C 79.066406 339.898438 84.261719 337.855469 88.132812 333.816406 L 86.90625 332.640625 "/>
</g>
</g>
</svg>
