<?xml version="1.0" encoding="UTF-8"?>
<svg xmlns="http://www.w3.org/2000/svg" xmlns:xlink="http://www.w3.org/1999/xlink" width="375pt" height="374.999991pt" viewBox="0 0 375 374.999991" version="1.2">
<defs>
<clipPath id="clip1">
  <path d="M 0.628906 0 L 375 0 L 375 375 L 0.628906 375 Z M 0.628906 0 "/>
</clipPath>
<clipPath id="clip2">
  <path d="M 40 42.820312 L 330 42.820312 L 330 332.320312 L 40 332.320312 Z M 40 42.820312 "/>
</clipPath>
</defs>
<g id="surface1">
<g clip-path="url(#clip1)" clip-rule="nonzero">
<path style=" stroke:none;fill-rule:nonzero;fill:rgb(29.798889%,38.819885%,66.268921%);fill-opacity:1;" d="M 0.628906 0 L 375.628906 0 L 375.628906 375 L 0.628906 375 Z M 0.628906 0 "/>
</g>
<g clip-path="url(#clip2)" clip-rule="nonzero">
<path style=" stroke:none;fill-rule:nonzero;fill:rgb(97.648621%,97.648621%,92.939758%);fill-opacity:1;" d="M 309.75 62.921875 C 297.171875 50.351562 282.957031 42.847656 271.726562 42.847656 C 264.835938 42.847656 260.570312 45.65625 258.1875 48.027344 L 237.382812 68.855469 L 58.273438 247.9375 C 58.230469 247.976562 58.203125 248.023438 58.167969 248.066406 C 58.046875 248.191406 57.953125 248.332031 57.84375 248.460938 C 57.484375 248.886719 57.152344 249.332031 56.871094 249.816406 C 56.773438 249.996094 56.683594 250.179688 56.585938 250.363281 C 56.324219 250.90625 56.109375 251.472656 55.957031 252.074219 C 55.933594 252.160156 55.890625 252.234375 55.867188 252.324219 L 44.925781 301.691406 L 44.925781 301.699219 C 44.925781 301.699219 44.925781 301.703125 44.925781 301.703125 L 40.585938 321.441406 C 39.933594 324.421875 40.84375 327.527344 43.003906 329.683594 C 44.695312 331.371094 46.976562 332.296875 49.316406 332.296875 C 49.960938 332.296875 50.609375 332.226562 51.246094 332.085938 L 70.964844 327.730469 L 120.339844 316.8125 C 120.441406 316.792969 120.523438 316.738281 120.613281 316.710938 C 121.203125 316.5625 121.769531 316.351562 122.300781 316.09375 C 122.484375 316.003906 122.660156 315.910156 122.84375 315.808594 C 123.332031 315.523438 123.777344 315.195312 124.203125 314.832031 C 124.332031 314.722656 124.472656 314.632812 124.59375 314.515625 C 124.644531 314.472656 124.6875 314.449219 124.730469 314.40625 L 303.8125 135.3125 C 303.8125 135.3125 303.816406 135.3125 303.816406 135.308594 L 324.6875 114.464844 C 336.683594 102.421875 326.25 79.425781 309.75 62.921875 Z M 91.589844 254.429688 L 249.109375 96.953125 C 249.824219 96.242188 250.734375 95.898438 251.664062 95.765625 L 256.621094 100.722656 C 256.492188 101.652344 256.144531 102.558594 255.425781 103.269531 L 97.90625 260.746094 C 97.035156 261.617188 95.894531 262.054688 94.746094 262.054688 C 93.605469 262.054688 92.457031 261.617188 91.585938 260.746094 C 89.84375 259 89.84375 256.175781 91.589844 254.429688 Z M 273.839844 121.703125 L 116.320312 279.222656 C 115.445312 280.09375 114.300781 280.527344 113.160156 280.527344 C 112.011719 280.527344 110.871094 280.09375 110 279.222656 C 108.253906 277.476562 108.253906 274.648438 110 272.902344 L 267.523438 115.386719 C 268.238281 114.671875 269.152344 114.320312 270.082031 114.195312 L 275.03125 119.144531 C 274.90625 120.078125 274.554688 120.988281 273.839844 121.703125 Z M 273.839844 121.703125 "/>
</g>
</g>
</svg>
