<?xml version="1.0" encoding="UTF-8"?>
<svg xmlns="http://www.w3.org/2000/svg" xmlns:xlink="http://www.w3.org/1999/xlink" width="375pt" height="374.999991pt" viewBox="0 0 375 374.999991" version="1.2">
<defs>
<clipPath id="clip1">
  <path d="M 0.628906 0 L 375 0 L 375 375 L 0.628906 375 Z M 0.628906 0 "/>
</clipPath>
<clipPath id="clip2">
  <path d="M 37.5 44.25 L 182 44.25 L 182 287 L 37.5 287 Z M 37.5 44.25 "/>
</clipPath>
<clipPath id="clip3">
  <path d="M 125 77 L 324 77 L 324 330.75 L 125 330.75 Z M 125 77 "/>
</clipPath>
</defs>
<g id="surface1">
<g clip-path="url(#clip1)" clip-rule="nonzero">
<path style=" stroke:none;fill-rule:nonzero;fill:rgb(29.798889%,38.819885%,66.268921%);fill-opacity:1;" d="M 0.628906 0 L 375.628906 0 L 375.628906 375 L 0.628906 375 Z M 0.628906 0 "/>
</g>
<g clip-path="url(#clip2)" clip-rule="nonzero">
<path style=" stroke:none;fill-rule:nonzero;fill:rgb(97.648621%,97.648621%,92.939758%);fill-opacity:1;" d="M 81.578125 264.636719 C 69.410156 264.636719 59.539062 254.761719 59.539062 242.597656 L 59.539062 88.328125 C 59.539062 76.164062 69.410156 66.289062 81.578125 66.289062 L 150.875 66.246094 C 152.5625 66.675781 153.839844 67.511719 154.875 68.582031 C 159.636719 67.238281 164.550781 66.289062 169.730469 66.289062 L 181.457031 66.289062 C 167.261719 52.164062 157.621094 44.25 147.691406 44.25 L 81.578125 44.25 C 57.28125 44.25 37.5 64.03125 37.5 88.328125 L 37.5 242.597656 C 37.5 266.894531 57.28125 286.675781 81.578125 286.675781 L 114.632812 286.675781 L 114.632812 264.636719 Z M 81.578125 264.636719 "/>
</g>
<g clip-path="url(#clip3)" clip-rule="nonzero">
<path style=" stroke:none;fill-rule:nonzero;fill:rgb(97.648621%,97.648621%,92.939758%);fill-opacity:1;" d="M 293.875 123.667969 C 291.183594 121.023438 288.429688 118.332031 285.71875 115.601562 C 282.988281 112.890625 280.296875 110.136719 277.652344 107.445312 C 258.789062 88.195312 247.558594 77.308594 235.847656 77.308594 L 169.730469 77.308594 C 145.433594 77.308594 125.652344 97.089844 125.652344 121.386719 L 125.652344 286.675781 C 125.652344 310.972656 145.433594 330.75 169.730469 330.75 L 279.921875 330.75 C 304.21875 330.75 324 310.972656 324 286.675781 L 324 165.460938 C 324 153.761719 313.113281 142.519531 293.875 123.667969 Z M 301.960938 286.675781 C 301.960938 298.839844 292.089844 308.710938 279.921875 308.710938 L 169.730469 308.710938 C 157.566406 308.710938 147.691406 298.839844 147.691406 286.675781 L 147.691406 121.386719 C 147.691406 109.21875 157.566406 99.347656 169.730469 99.347656 L 239.03125 99.304688 C 246.976562 101.332031 246.867188 111.09375 246.867188 120.867188 L 246.867188 143.425781 C 246.867188 149.496094 251.8125 154.441406 257.882812 154.441406 L 279.921875 154.441406 C 290.921875 154.441406 301.960938 154.5 301.960938 165.460938 Z M 301.960938 286.675781 "/>
</g>
<path style=" stroke:none;fill-rule:nonzero;fill:rgb(97.648621%,97.648621%,92.939758%);fill-opacity:1;" d="M 225.367188 255.964844 C 218.84375 255.964844 212.472656 253.582031 207.648438 248.769531 C 204.980469 246.078125 204.980469 241.738281 207.648438 239.070312 C 210.335938 236.394531 214.679688 236.394531 217.34375 239.070312 C 222.039062 243.742188 230.171875 243.226562 235.484375 237.925781 L 260.925781 212.480469 C 263.746094 209.660156 265.355469 205.980469 265.355469 202.367188 C 265.355469 200.226562 264.773438 197.109375 262.0625 194.367188 C 259.128906 191.445312 255.789062 190.960938 253.453125 191.082031 C 250.003906 191.238281 246.632812 192.800781 243.933594 195.480469 L 237.90625 201.496094 C 235.074219 198.664062 223.417969 196.582031 220.253906 199.765625 L 234.226562 185.792969 C 239.339844 180.679688 245.941406 177.695312 252.816406 177.351562 C 259.976562 177.03125 266.710938 179.609375 271.757812 184.648438 C 276.496094 189.363281 279.097656 195.65625 279.097656 202.34375 C 279.085938 209.574219 276.011719 216.800781 270.613281 222.179688 L 245.179688 247.609375 C 239.636719 253.164062 232.417969 255.964844 225.367188 255.964844 Z M 225.367188 255.964844 "/>
<path style=" stroke:none;fill-rule:nonzero;fill:rgb(97.648621%,97.648621%,92.939758%);fill-opacity:1;" d="M 222.480469 209 C 229.003906 208.988281 235.371094 211.367188 240.199219 216.183594 C 242.875 218.871094 242.875 223.203125 240.199219 225.882812 C 237.511719 228.558594 233.179688 228.558594 230.5 225.882812 C 225.808594 221.21875 217.6875 221.726562 212.363281 227.027344 L 188.738281 250.675781 C 185.90625 253.507812 184.296875 257.175781 184.296875 260.789062 C 184.296875 262.925781 184.882812 266.058594 187.59375 268.789062 C 190.523438 271.710938 193.863281 272.195312 196.199219 272.074219 C 199.648438 271.917969 203.019531 270.34375 205.71875 267.675781 L 210.082031 263.3125 C 212.914062 266.132812 224.574219 268.21875 227.734375 265.042969 L 215.4375 277.351562 C 210.335938 282.464844 203.726562 285.449219 196.859375 285.792969 C 189.6875 286.125 182.953125 283.535156 177.886719 278.496094 C 173.167969 273.78125 170.566406 267.5 170.566406 260.800781 C 170.578125 253.582031 173.652344 246.34375 179.054688 240.964844 L 202.679688 217.328125 C 208.199219 211.796875 215.417969 209 222.480469 209 Z M 222.480469 209 "/>
</g>
</svg>
