<?xml version="1.0" encoding="UTF-8"?>
<svg xmlns="http://www.w3.org/2000/svg" xmlns:xlink="http://www.w3.org/1999/xlink" width="375pt" height="374.999991pt" viewBox="0 0 375 374.999991" version="1.2">
<defs>
<clipPath id="clip1">
  <path d="M 0 0 L 374.835938 0 L 374.835938 375 L 0 375 Z M 0 0 "/>
</clipPath>
<clipPath id="clip2">
  <path d="M 25 96.988281 L 351.839844 96.988281 L 351.839844 278.488281 L 25 278.488281 Z M 25 96.988281 "/>
</clipPath>
</defs>
<g id="surface1">
<g clip-path="url(#clip1)" clip-rule="nonzero">
<path style=" stroke:none;fill-rule:nonzero;fill:rgb(29.798889%,38.819885%,66.268921%);fill-opacity:1;" d="M -0.164062 0 L 374.835938 0 L 374.835938 375 L -0.164062 375 Z M -0.164062 0 "/>
</g>
<g clip-path="url(#clip2)" clip-rule="nonzero">
<path style=" stroke:none;fill-rule:nonzero;fill:rgb(97.648621%,97.648621%,92.939758%);fill-opacity:1;" d="M 25.140625 205.886719 L 61.40625 205.886719 L 61.40625 169.585938 L 25.140625 169.585938 Z M 25.140625 278.488281 L 61.40625 278.488281 L 61.40625 242.1875 L 25.140625 242.1875 Z M 25.140625 133.285156 L 61.40625 133.285156 L 61.40625 96.988281 L 25.140625 96.988281 Z M 97.675781 205.886719 L 351.539062 205.886719 L 351.539062 169.585938 L 97.675781 169.585938 Z M 97.675781 278.488281 L 351.539062 278.488281 L 351.539062 242.1875 L 97.675781 242.1875 Z M 97.675781 96.988281 L 97.675781 133.285156 L 351.539062 133.285156 L 351.539062 96.988281 Z M 97.675781 96.988281 "/>
</g>
</g>
</svg>
