<?xml version="1.0" encoding="UTF-8"?>
<svg xmlns="http://www.w3.org/2000/svg" xmlns:xlink="http://www.w3.org/1999/xlink" width="375pt" height="374.999991pt" viewBox="0 0 375 374.999991" version="1.2">
<defs>
<clipPath id="clip1">
  <path d="M 0.628906 0 L 375 0 L 375 375 L 0.628906 375 Z M 0.628906 0 "/>
</clipPath>
<clipPath id="clip2">
  <path d="M 47.382812 46.671875 L 329.382812 46.671875 L 329.382812 328.671875 L 47.382812 328.671875 Z M 47.382812 46.671875 "/>
</clipPath>
</defs>
<g id="surface1">
<g clip-path="url(#clip1)" clip-rule="nonzero">
<path style=" stroke:none;fill-rule:nonzero;fill:rgb(29.798889%,38.819885%,66.268921%);fill-opacity:1;" d="M 0.628906 0 L 375.628906 0 L 375.628906 375 L 0.628906 375 Z M 0.628906 0 "/>
</g>
<g clip-path="url(#clip2)" clip-rule="nonzero">
<path style=" stroke:none;fill-rule:nonzero;fill:rgb(97.648621%,97.648621%,92.939758%);fill-opacity:1;" d="M 313.960938 165.640625 L 210.414062 165.640625 L 210.414062 62.3125 C 210.414062 53.722656 203.585938 46.671875 194.992188 46.671875 L 181.773438 46.671875 C 173.179688 46.671875 166.351562 53.722656 166.351562 62.3125 L 166.351562 165.640625 L 62.804688 165.640625 C 54.210938 165.640625 47.382812 172.46875 47.382812 181.0625 L 47.382812 194.28125 C 47.382812 202.875 54.210938 209.703125 62.804688 209.703125 L 166.351562 209.703125 L 166.351562 313.46875 C 166.351562 322.0625 173.179688 328.671875 181.773438 328.671875 L 194.992188 328.671875 C 203.585938 328.671875 210.414062 321.84375 210.414062 313.46875 L 210.414062 209.703125 L 313.960938 209.703125 C 322.554688 209.703125 329.382812 202.875 329.382812 194.28125 L 329.382812 181.0625 C 329.382812 172.46875 322.554688 165.640625 313.960938 165.640625 Z M 313.960938 165.640625 "/>
</g>
</g>
</svg>
