<?xml version="1.0" encoding="UTF-8"?>
<svg xmlns="http://www.w3.org/2000/svg" xmlns:xlink="http://www.w3.org/1999/xlink" width="375pt" height="374.999991pt" viewBox="0 0 375 374.999991" version="1.2">
<defs>
<clipPath id="clip1">
  <path d="M 86 91 L 289 91 L 289 327.796875 L 86 327.796875 Z M 86 91 "/>
</clipPath>
<clipPath id="clip2">
  <path d="M 136 47.296875 L 239 47.296875 L 239 82 L 136 82 Z M 136 47.296875 "/>
</clipPath>
<clipPath id="clip3">
  <path d="M 65 77 L 310.246094 77 L 310.246094 117 L 65 117 Z M 65 77 "/>
</clipPath>
</defs>
<g id="surface1">
<rect x="0" y="0" width="375" height="374.999991" style="fill:rgb(29.798889%,38.819885%,66.268921%);fill-opacity:1;stroke:none;"/>
<path style=" stroke:none;fill-rule:nonzero;fill:rgb(97.648621%,97.648621%,92.939758%);fill-opacity:1;" d="M 286.4375 122.730469 C 286.4375 106.328125 273.132812 93.042969 256.730469 93.042969 L 118.507812 93.042969 C 102.101562 93.042969 88.8125 106.328125 88.8125 122.730469 L 88.8125 296.265625 C 88.8125 312.652344 102.101562 325.941406 118.507812 325.941406 L 256.730469 325.941406 C 273.132812 325.941406 286.433594 312.652344 286.433594 296.265625 L 286.4375 122.730469 "/>
<g clip-path="url(#clip1)" clip-rule="nonzero">
<path style=" stroke:none;fill-rule:nonzero;fill:rgb(29.798889%,38.819885%,66.268921%);fill-opacity:1;" d="M 286.4375 122.730469 L 288.351562 122.730469 C 288.351562 105.265625 274.191406 91.128906 256.730469 91.128906 L 118.507812 91.128906 C 101.046875 91.128906 86.894531 105.269531 86.894531 122.730469 L 86.894531 296.265625 C 86.894531 313.710938 101.046875 327.855469 118.507812 327.855469 L 256.730469 327.855469 C 274.191406 327.855469 288.347656 313.710938 288.347656 296.265625 L 288.355469 122.730469 L 284.519531 122.730469 L 284.515625 296.265625 C 284.515625 303.933594 281.40625 310.863281 276.375 315.894531 C 271.339844 320.921875 264.410156 324.027344 256.730469 324.027344 L 118.507812 324.027344 C 110.832031 324.027344 103.894531 320.921875 98.863281 315.894531 C 93.835938 310.863281 90.726562 303.933594 90.726562 296.265625 L 90.726562 122.730469 C 90.726562 115.050781 93.835938 108.121094 98.863281 103.089844 C 103.894531 98.0625 110.828125 94.957031 118.507812 94.957031 L 256.730469 94.957031 C 264.410156 94.957031 271.34375 98.0625 276.378906 103.089844 C 281.410156 108.121094 284.519531 115.054688 284.523438 122.730469 L 286.4375 122.730469 "/>
</g>
<path style=" stroke:none;fill-rule:nonzero;fill:rgb(97.648621%,97.648621%,92.939758%);fill-opacity:1;" d="M 153.394531 79.832031 L 153.394531 74.722656 C 153.394531 68.621094 158 63.683594 163.679688 63.683594 L 211.566406 63.683594 C 217.242188 63.683594 221.84375 68.621094 221.84375 74.722656 L 221.84375 79.832031 L 237.03125 79.832031 L 237.03125 64.089844 C 237.03125 55.898438 230.375 49.246094 222.179688 49.246094 L 153.0625 49.246094 C 144.867188 49.246094 138.214844 55.898438 138.214844 64.089844 L 138.214844 79.832031 L 153.394531 79.832031 "/>
<g clip-path="url(#clip2)" clip-rule="nonzero">
<path style=" stroke:none;fill-rule:nonzero;fill:rgb(29.798889%,38.819885%,66.268921%);fill-opacity:1;" d="M 153.394531 79.832031 L 155.308594 79.832031 L 155.308594 74.722656 C 155.308594 72.15625 156.277344 69.863281 157.808594 68.222656 C 159.347656 66.578125 161.402344 65.597656 163.679688 65.597656 L 211.566406 65.597656 C 213.839844 65.597656 215.894531 66.574219 217.429688 68.222656 C 218.960938 69.863281 219.929688 72.15625 219.929688 74.722656 L 219.929688 79.832031 C 219.929688 80.339844 220.128906 80.832031 220.484375 81.1875 C 220.84375 81.546875 221.339844 81.75 221.84375 81.75 L 237.03125 81.75 C 237.542969 81.75 238.023438 81.550781 238.386719 81.1875 C 238.75 80.828125 238.949219 80.347656 238.949219 79.832031 L 238.949219 64.089844 C 238.945312 54.839844 231.433594 47.335938 222.179688 47.332031 L 153.0625 47.332031 C 143.804688 47.335938 136.300781 54.839844 136.296875 64.089844 L 136.296875 79.832031 C 136.296875 80.339844 136.503906 80.832031 136.859375 81.1875 C 137.21875 81.546875 137.710938 81.75 138.214844 81.75 L 153.394531 81.75 C 153.90625 81.75 154.386719 81.550781 154.75 81.1875 C 155.109375 80.828125 155.308594 80.347656 155.308594 79.832031 L 153.394531 79.832031 L 153.394531 77.917969 L 140.128906 77.917969 L 140.128906 64.089844 C 140.132812 60.519531 141.578125 57.296875 143.921875 54.953125 C 146.269531 52.609375 149.488281 51.167969 153.0625 51.164062 L 222.179688 51.164062 C 225.753906 51.167969 228.976562 52.609375 231.324219 54.953125 C 233.667969 57.296875 235.113281 60.519531 235.113281 64.089844 L 235.113281 77.917969 L 223.757812 77.917969 L 223.757812 74.722656 C 223.757812 71.1875 222.425781 67.964844 220.234375 65.609375 C 218.050781 63.261719 214.96875 61.769531 211.566406 61.769531 L 163.679688 61.769531 C 160.277344 61.765625 157.1875 63.257812 155.007812 65.609375 C 152.8125 67.964844 151.480469 71.1875 151.480469 74.722656 L 151.480469 79.832031 L 153.394531 79.832031 L 153.394531 77.917969 L 153.394531 79.832031 "/>
</g>
<path style=" stroke:none;fill-rule:nonzero;fill:rgb(97.648621%,97.648621%,92.939758%);fill-opacity:1;" d="M 84.671875 79.597656 C 74.957031 79.597656 67.089844 87.460938 67.089844 97.167969 C 67.089844 106.875 74.957031 114.753906 84.671875 114.753906 L 290.570312 114.753906 C 300.285156 114.753906 308.15625 106.875 308.15625 97.167969 C 308.15625 87.460938 300.285156 79.597656 290.570312 79.597656 L 84.671875 79.597656 "/>
<g clip-path="url(#clip3)" clip-rule="nonzero">
<path style=" stroke:none;fill-rule:nonzero;fill:rgb(29.798889%,38.819885%,66.268921%);fill-opacity:1;" d="M 84.671875 79.597656 L 84.671875 77.683594 C 73.898438 77.683594 65.171875 86.402344 65.171875 97.167969 C 65.171875 107.929688 73.894531 116.667969 84.671875 116.667969 L 290.570312 116.667969 C 301.34375 116.667969 310.074219 107.929688 310.074219 97.167969 C 310.074219 86.402344 301.34375 77.683594 290.570312 77.683594 L 84.671875 77.683594 L 84.671875 81.511719 L 290.570312 81.511719 C 294.90625 81.515625 298.808594 83.265625 301.652344 86.097656 C 304.488281 88.933594 306.238281 92.835938 306.238281 97.167969 C 306.238281 101.5 304.488281 105.40625 301.652344 108.246094 C 298.808594 111.085938 294.90625 112.835938 290.570312 112.839844 L 84.671875 112.839844 C 80.339844 112.835938 76.4375 111.085938 73.59375 108.246094 C 70.757812 105.40625 69.003906 101.5 69.003906 97.167969 C 69.003906 92.835938 70.753906 88.933594 73.589844 86.097656 C 76.433594 83.265625 80.335938 81.515625 84.671875 81.511719 L 84.671875 79.597656 "/>
</g>
<path style=" stroke:none;fill-rule:nonzero;fill:rgb(97.648621%,97.648621%,92.939758%);fill-opacity:1;" d="M 146.179688 290.773438 C 146.179688 296.589844 141.460938 301.308594 135.636719 301.308594 L 125.097656 301.308594 C 119.273438 301.308594 114.558594 296.589844 114.558594 290.773438 L 114.558594 140.421875 C 114.558594 134.605469 119.273438 129.886719 125.097656 129.886719 L 135.636719 129.886719 C 141.460938 129.886719 146.179688 134.605469 146.179688 140.421875 L 146.179688 290.773438 "/>
<path style=" stroke:none;fill-rule:nonzero;fill:rgb(29.798889%,38.819885%,66.268921%);fill-opacity:1;" d="M 146.179688 290.773438 L 144.261719 290.773438 C 144.257812 293.160156 143.296875 295.304688 141.734375 296.867188 C 140.167969 298.429688 138.027344 299.394531 135.636719 299.394531 L 125.097656 299.394531 C 122.710938 299.394531 120.566406 298.429688 118.996094 296.867188 C 117.433594 295.304688 116.472656 293.160156 116.46875 290.773438 L 116.46875 140.421875 C 116.472656 138.035156 117.433594 135.890625 118.996094 134.328125 C 120.566406 132.761719 122.710938 131.800781 125.097656 131.800781 L 135.636719 131.800781 C 138.027344 131.800781 140.167969 132.761719 141.734375 134.328125 C 143.296875 135.890625 144.257812 138.035156 144.261719 140.421875 L 144.261719 290.773438 L 148.09375 290.773438 L 148.09375 140.421875 C 148.09375 133.542969 142.519531 127.972656 135.636719 127.972656 L 125.097656 127.972656 C 118.21875 127.972656 112.640625 133.542969 112.640625 140.421875 L 112.640625 290.773438 C 112.640625 297.648438 118.21875 303.222656 125.097656 303.222656 L 135.636719 303.222656 C 142.519531 303.222656 148.09375 297.648438 148.09375 290.773438 L 146.179688 290.773438 "/>
<path style=" stroke:none;fill-rule:nonzero;fill:rgb(97.648621%,97.648621%,92.939758%);fill-opacity:1;" d="M 203.4375 290.773438 C 203.4375 296.589844 198.714844 301.308594 192.894531 301.308594 L 182.355469 301.308594 C 176.53125 301.308594 171.8125 296.589844 171.8125 290.773438 L 171.8125 140.421875 C 171.8125 134.605469 176.53125 129.886719 182.355469 129.886719 L 192.894531 129.886719 C 198.714844 129.886719 203.4375 134.605469 203.4375 140.421875 L 203.4375 290.773438 "/>
<path style=" stroke:none;fill-rule:nonzero;fill:rgb(29.798889%,38.819885%,66.268921%);fill-opacity:1;" d="M 203.4375 290.773438 L 201.519531 290.773438 C 201.515625 293.160156 200.554688 295.304688 198.992188 296.867188 C 197.425781 298.429688 195.28125 299.394531 192.894531 299.394531 L 182.355469 299.394531 C 179.964844 299.394531 177.820312 298.429688 176.253906 296.867188 C 174.691406 295.304688 173.730469 293.160156 173.726562 290.773438 L 173.726562 140.421875 C 173.730469 138.035156 174.691406 135.890625 176.253906 134.328125 C 177.820312 132.761719 179.964844 131.800781 182.355469 131.800781 L 192.894531 131.800781 C 195.28125 131.800781 197.425781 132.761719 198.992188 134.328125 C 200.554688 135.890625 201.515625 138.035156 201.519531 140.421875 L 201.519531 290.773438 L 205.347656 290.773438 L 205.347656 140.421875 C 205.347656 133.542969 199.773438 127.972656 192.894531 127.972656 L 182.355469 127.972656 C 175.472656 127.972656 169.898438 133.542969 169.898438 140.421875 L 169.898438 290.773438 C 169.898438 297.648438 175.472656 303.222656 182.355469 303.222656 L 192.894531 303.222656 C 199.773438 303.222656 205.347656 297.648438 205.347656 290.773438 L 203.4375 290.773438 "/>
<path style=" stroke:none;fill-rule:nonzero;fill:rgb(97.648621%,97.648621%,92.939758%);fill-opacity:1;" d="M 260.691406 290.773438 C 260.691406 296.589844 255.972656 301.308594 250.152344 301.308594 L 239.609375 301.308594 C 233.785156 301.308594 229.070312 296.589844 229.070312 290.773438 L 229.070312 140.421875 C 229.070312 134.605469 233.785156 129.886719 239.609375 129.886719 L 250.152344 129.886719 C 255.972656 129.886719 260.691406 134.605469 260.691406 140.421875 L 260.691406 290.773438 "/>
<path style=" stroke:none;fill-rule:nonzero;fill:rgb(29.798889%,38.819885%,66.268921%);fill-opacity:1;" d="M 260.691406 290.773438 L 258.777344 290.773438 C 258.773438 293.160156 257.808594 295.304688 256.25 296.867188 C 254.679688 298.429688 252.539062 299.394531 250.152344 299.394531 L 239.609375 299.394531 C 237.222656 299.394531 235.078125 298.429688 233.507812 296.867188 C 231.949219 295.304688 230.984375 293.160156 230.980469 290.773438 L 230.980469 140.421875 C 230.984375 138.035156 231.949219 135.890625 233.507812 134.328125 C 235.078125 132.761719 237.222656 131.800781 239.609375 131.800781 L 250.152344 131.800781 C 252.539062 131.800781 254.679688 132.761719 256.25 134.328125 C 257.808594 135.890625 258.773438 138.035156 258.777344 140.421875 L 258.777344 290.773438 L 262.605469 290.773438 L 262.605469 140.421875 C 262.605469 133.542969 257.03125 127.972656 250.152344 127.972656 L 239.609375 127.972656 C 232.730469 127.972656 227.152344 133.542969 227.152344 140.421875 L 227.152344 290.773438 C 227.152344 297.648438 232.730469 303.222656 239.609375 303.222656 L 250.152344 303.222656 C 257.03125 303.222656 262.605469 297.648438 262.605469 290.773438 L 260.691406 290.773438 "/>
</g>
</svg>
