<?xml version="1.0" encoding="UTF-8"?>
<svg xmlns="http://www.w3.org/2000/svg" xmlns:xlink="http://www.w3.org/1999/xlink" width="375pt" height="374.999991pt" viewBox="0 0 375 374.999991" version="1.2">
<defs>
<clipPath id="clip1">
  <path d="M 0 0 L 374.835938 0 L 374.835938 375 L 0 375 Z M 0 0 "/>
</clipPath>
</defs>
<g id="surface1">
<g clip-path="url(#clip1)" clip-rule="nonzero">
<path style=" stroke:none;fill-rule:nonzero;fill:rgb(29.798889%,38.819885%,66.268921%);fill-opacity:1;" d="M -0.164062 0 L 374.835938 0 L 374.835938 375 L -0.164062 375 Z M -0.164062 0 "/>
</g>
<path style=" stroke:none;fill-rule:nonzero;fill:rgb(97.648621%,97.648621%,92.939758%);fill-opacity:1;" d="M 189.578125 206.003906 L 169.554688 185.980469 C 153.65625 170.074219 127.785156 170.089844 111.886719 185.980469 L 55.101562 242.769531 C 39.199219 258.664062 39.199219 284.527344 55.097656 300.429688 L 75.125 320.453125 C 91.027344 336.359375 116.886719 336.359375 132.785156 320.453125 L 189.578125 263.675781 C 205.476562 247.757812 205.480469 221.90625 189.578125 206.003906 Z M 167.390625 228.1875 C 171.070312 231.859375 171.070312 237.8125 167.390625 241.484375 L 110.609375 298.277344 C 106.933594 301.9375 100.980469 301.945312 97.308594 298.277344 L 77.28125 278.25 C 73.609375 274.578125 73.609375 268.625 77.28125 264.953125 L 134.074219 208.160156 C 137.746094 204.488281 143.699219 204.488281 147.367188 208.15625 L 167.390625 228.1875 "/>
<path style=" stroke:none;fill-rule:nonzero;fill:rgb(29.798889%,38.819885%,66.268921%);fill-opacity:1;" d="M 189.578125 206.003906 L 191.109375 204.472656 L 171.085938 184.449219 C 162.722656 176.078125 151.710938 171.886719 140.726562 171.890625 C 129.738281 171.886719 118.726562 176.082031 110.355469 184.449219 L 53.5625 241.234375 C 45.183594 249.613281 41 260.640625 41.003906 271.640625 C 41.003906 282.613281 45.207031 293.605469 53.5625 301.964844 L 73.589844 321.984375 C 81.960938 330.359375 92.96875 334.554688 103.957031 334.554688 C 114.945312 334.554688 125.953125 330.359375 134.320312 321.984375 L 191.109375 265.207031 C 199.480469 256.828125 203.671875 245.820312 203.671875 234.832031 C 203.671875 223.847656 199.480469 212.839844 191.109375 204.472656 L 188.042969 207.535156 C 195.578125 215.070312 199.332031 224.9375 199.335938 234.832031 C 199.332031 244.726562 195.574219 254.605469 188.042969 262.140625 L 131.253906 318.921875 C 123.722656 326.453125 113.851562 330.214844 103.957031 330.21875 C 94.0625 330.214844 84.1875 326.453125 76.65625 318.921875 L 56.628906 298.898438 C 49.109375 291.375 45.34375 281.515625 45.339844 271.640625 C 45.34375 261.726562 49.09375 251.835938 56.628906 244.300781 L 113.421875 187.511719 C 120.953125 179.984375 130.832031 176.226562 140.726562 176.226562 C 150.621094 176.226562 160.492188 179.980469 168.023438 187.511719 L 188.042969 207.535156 Z M 165.863281 229.722656 C 167.28125 231.140625 167.980469 232.980469 167.984375 234.835938 C 167.980469 236.691406 167.28125 238.535156 165.863281 239.953125 L 109.074219 296.742188 L 109.074219 296.738281 C 107.65625 298.152344 105.8125 298.855469 103.953125 298.855469 C 102.09375 298.855469 100.257812 298.15625 98.84375 296.742188 L 78.816406 276.714844 C 77.398438 275.296875 76.695312 273.460938 76.695312 271.601562 C 76.695312 269.742188 77.398438 267.90625 78.816406 266.488281 L 135.605469 209.691406 C 137.023438 208.273438 138.863281 207.574219 140.726562 207.570312 C 142.578125 207.574219 144.417969 208.273438 145.835938 209.6875 L 165.859375 229.71875 L 168.921875 226.652344 L 148.902344 206.621094 C 146.644531 204.371094 143.675781 203.234375 140.726562 203.234375 C 137.769531 203.234375 134.792969 204.371094 132.539062 206.625 L 75.75 263.421875 C 73.492188 265.671875 72.355469 268.644531 72.359375 271.601562 C 72.355469 274.558594 73.492188 277.527344 75.75 279.78125 L 95.777344 299.808594 C 98.03125 302.0625 101 303.195312 103.953125 303.191406 C 106.90625 303.195312 109.878906 302.0625 112.136719 299.808594 L 112.140625 299.808594 L 168.921875 243.015625 C 171.179688 240.765625 172.320312 237.792969 172.320312 234.835938 C 172.320312 231.882812 171.183594 228.90625 168.921875 226.652344 L 165.863281 229.722656 "/>
<path style=" stroke:none;fill-rule:nonzero;fill:rgb(97.648621%,97.648621%,92.939758%);fill-opacity:1;" d="M 321.082031 74.511719 L 301.054688 54.476562 C 285.15625 38.5625 259.28125 38.5625 243.386719 54.476562 L 186.601562 111.257812 C 170.703125 127.167969 170.703125 153.027344 186.601562 168.921875 L 206.625 188.957031 C 222.523438 204.855469 248.394531 204.855469 264.289062 188.949219 L 321.082031 132.167969 C 336.980469 116.261719 336.980469 90.394531 321.082031 74.511719 Z M 298.910156 96.683594 C 302.574219 100.359375 302.574219 106.304688 298.910156 109.980469 L 242.109375 166.769531 C 238.4375 170.441406 232.484375 170.441406 228.8125 166.769531 L 208.777344 146.746094 C 205.113281 143.074219 205.113281 137.125 208.777344 133.441406 L 265.574219 76.652344 C 269.25 72.984375 275.203125 72.984375 278.871094 76.652344 L 298.910156 96.683594 "/>
<path style=" stroke:none;fill-rule:nonzero;fill:rgb(29.798889%,38.819885%,66.268921%);fill-opacity:1;" d="M 321.082031 74.511719 L 322.613281 72.980469 L 302.585938 52.945312 C 294.21875 44.566406 283.207031 40.367188 272.222656 40.371094 C 261.230469 40.367188 250.222656 44.566406 241.855469 52.945312 L 185.066406 109.726562 C 176.703125 118.09375 172.503906 129.097656 172.511719 140.078125 C 172.503906 151.070312 176.691406 162.085938 185.066406 170.453125 L 205.089844 190.488281 C 213.457031 198.855469 224.460938 203.050781 235.445312 203.046875 C 246.441406 203.050781 257.453125 198.859375 265.824219 190.480469 L 322.613281 133.699219 C 330.984375 125.328125 335.175781 114.316406 335.171875 103.332031 C 335.175781 92.34375 330.984375 81.335938 322.613281 72.980469 L 319.550781 76.042969 C 327.078125 83.5625 330.835938 93.4375 330.835938 103.332031 C 330.835938 113.226562 327.078125 123.101562 319.550781 130.632812 L 262.757812 187.417969 C 255.226562 194.953125 245.347656 198.710938 235.445312 198.710938 C 225.554688 198.710938 215.683594 194.949219 208.15625 187.425781 L 188.132812 167.390625 C 180.601562 159.855469 176.84375 149.980469 176.84375 140.078125 C 176.84375 130.195312 180.609375 120.320312 188.132812 112.792969 L 244.921875 56.007812 C 252.449219 48.472656 262.320312 44.707031 272.222656 44.707031 C 282.117188 44.707031 291.988281 48.472656 299.523438 56.007812 L 319.550781 76.042969 Z M 297.371094 98.214844 C 298.789062 99.636719 299.484375 101.472656 299.488281 103.332031 C 299.484375 105.191406 298.789062 107.027344 297.371094 108.449219 L 240.574219 165.238281 C 239.15625 166.652344 237.320312 167.355469 235.460938 167.355469 C 233.601562 167.355469 231.761719 166.652344 230.347656 165.238281 L 210.3125 145.210938 C 208.898438 143.792969 208.199219 141.957031 208.199219 140.097656 C 208.199219 138.238281 208.898438 136.390625 210.316406 134.96875 L 210.3125 134.972656 L 267.101562 78.1875 C 268.523438 76.773438 270.367188 76.074219 272.226562 76.070312 C 274.085938 76.074219 275.921875 76.773438 277.335938 78.1875 L 297.375 98.21875 L 300.441406 95.152344 L 280.40625 75.121094 C 278.152344 72.863281 275.175781 71.730469 272.226562 71.734375 C 269.269531 71.730469 266.296875 72.863281 264.042969 75.117188 L 207.246094 131.910156 L 207.242188 131.910156 C 204.992188 134.167969 203.859375 137.140625 203.859375 140.097656 C 203.859375 143.050781 204.992188 146.023438 207.246094 148.277344 L 227.28125 168.304688 C 229.535156 170.5625 232.507812 171.695312 235.460938 171.691406 C 238.414062 171.695312 241.386719 170.5625 243.640625 168.308594 L 300.441406 111.511719 C 302.6875 109.257812 303.828125 106.289062 303.824219 103.332031 C 303.828125 100.382812 302.695312 97.410156 300.441406 95.152344 L 297.371094 98.214844 "/>
<path style=" stroke:none;fill-rule:nonzero;fill:rgb(97.648621%,97.648621%,92.939758%);fill-opacity:1;" d="M 138.265625 237.289062 C 132.136719 231.164062 132.136719 221.230469 138.265625 215.101562 L 218.714844 134.660156 C 224.839844 128.53125 234.765625 128.53125 240.890625 134.660156 C 247.019531 140.78125 247.019531 150.710938 240.890625 156.847656 L 160.453125 237.292969 C 154.328125 243.414062 144.390625 243.414062 138.265625 237.289062 "/>
<path style=" stroke:none;fill-rule:nonzero;fill:rgb(29.798889%,38.819885%,66.268921%);fill-opacity:1;" d="M 138.265625 237.289062 L 139.796875 235.757812 C 137.152344 233.109375 135.839844 229.664062 135.839844 226.195312 C 135.839844 222.726562 137.15625 219.28125 139.796875 216.636719 L 220.25 136.191406 C 222.890625 133.546875 226.335938 132.230469 229.800781 132.230469 C 233.265625 132.230469 236.710938 133.546875 239.355469 136.191406 L 239.355469 136.199219 C 242.003906 138.839844 243.316406 142.28125 243.320312 145.75 C 243.316406 149.210938 242.003906 152.664062 239.355469 155.3125 L 158.914062 235.761719 C 156.273438 238.398438 152.832031 239.714844 149.363281 239.714844 C 145.894531 239.714844 142.445312 238.398438 139.796875 235.757812 L 136.734375 238.820312 C 140.210938 242.304688 144.796875 244.054688 149.363281 244.050781 C 153.921875 244.054688 158.503906 242.304688 161.984375 238.824219 L 242.421875 158.378906 C 245.90625 154.894531 247.660156 150.308594 247.65625 145.75 C 247.660156 141.183594 245.90625 136.605469 242.421875 133.128906 C 238.945312 129.644531 234.359375 127.890625 229.800781 127.894531 C 225.242188 127.890625 220.660156 129.644531 217.179688 133.132812 L 136.734375 213.570312 C 133.246094 217.050781 131.5 221.636719 131.503906 226.195312 C 131.5 230.753906 133.246094 235.339844 136.734375 238.820312 L 138.265625 237.289062 "/>
</g>
</svg>
